<mxfile host="app.diagrams.net" agent="Mozilla/5.0 (Windows NT 10.0; Win64; x64) AppleWebKit/537.36 (KHTML, like Gecko) Chrome/126.0.0.0 Safari/537.36 Edg/126.0.0.0" version="26.1.0">
  <diagram name="第 1 页" id="8B8G3YNLEqupBcHY9rQY">
    <mxGraphModel dx="3680" dy="1145" grid="1" gridSize="10" guides="1" tooltips="1" connect="1" arrows="1" fold="1" page="1" pageScale="1" pageWidth="827" pageHeight="1169" math="0" shadow="0">
      <root>
        <mxCell id="0" />
        <mxCell id="1" parent="0" />
        <mxCell id="-tlbvzrSFhPsvp-Gw672-137" value="" style="rounded=1;whiteSpace=wrap;html=1;" vertex="1" parent="1">
          <mxGeometry x="-1520" y="50" width="1330" height="1080" as="geometry" />
        </mxCell>
        <mxCell id="-tlbvzrSFhPsvp-Gw672-134" value="" style="rounded=1;whiteSpace=wrap;html=1;" vertex="1" parent="1">
          <mxGeometry x="40" y="1035" width="1030" height="415" as="geometry" />
        </mxCell>
        <mxCell id="-tlbvzrSFhPsvp-Gw672-120" style="edgeStyle=orthogonalEdgeStyle;rounded=0;orthogonalLoop=1;jettySize=auto;html=1;exitX=1;exitY=0.5;exitDx=0;exitDy=0;" edge="1" parent="1" source="-tlbvzrSFhPsvp-Gw672-103" target="-tlbvzrSFhPsvp-Gw672-105">
          <mxGeometry relative="1" as="geometry" />
        </mxCell>
        <mxCell id="-tlbvzrSFhPsvp-Gw672-103" value="&lt;div&gt;&lt;br&gt;&lt;/div&gt;&lt;div&gt;ViT Block i-1&lt;/div&gt;" style="rounded=1;whiteSpace=wrap;html=1;fillColor=#dae8fc;strokeColor=#6c8ebf;" vertex="1" parent="1">
          <mxGeometry x="162.5" y="810" width="320" height="110" as="geometry" />
        </mxCell>
        <mxCell id="-tlbvzrSFhPsvp-Gw672-49" style="edgeStyle=orthogonalEdgeStyle;rounded=0;orthogonalLoop=1;jettySize=auto;html=1;exitX=1;exitY=0.5;exitDx=0;exitDy=0;" edge="1" parent="1" source="-tlbvzrSFhPsvp-Gw672-1">
          <mxGeometry relative="1" as="geometry">
            <mxPoint x="150" y="150" as="targetPoint" />
          </mxGeometry>
        </mxCell>
        <mxCell id="-tlbvzrSFhPsvp-Gw672-1" value="Image" style="whiteSpace=wrap;html=1;aspect=fixed;" vertex="1" parent="1">
          <mxGeometry x="40" y="110" width="80" height="80" as="geometry" />
        </mxCell>
        <mxCell id="-tlbvzrSFhPsvp-Gw672-32" value="" style="edgeStyle=orthogonalEdgeStyle;rounded=0;orthogonalLoop=1;jettySize=auto;html=1;" edge="1" parent="1" source="-tlbvzrSFhPsvp-Gw672-4" target="-tlbvzrSFhPsvp-Gw672-30">
          <mxGeometry relative="1" as="geometry" />
        </mxCell>
        <mxCell id="-tlbvzrSFhPsvp-Gw672-64" style="edgeStyle=orthogonalEdgeStyle;rounded=0;orthogonalLoop=1;jettySize=auto;html=1;exitX=1;exitY=0.75;exitDx=0;exitDy=0;entryX=0.25;entryY=0;entryDx=0;entryDy=0;" edge="1" parent="1" source="-tlbvzrSFhPsvp-Gw672-4" target="-tlbvzrSFhPsvp-Gw672-31">
          <mxGeometry relative="1" as="geometry" />
        </mxCell>
        <mxCell id="-tlbvzrSFhPsvp-Gw672-4" value="PatchEmbed" style="rounded=0;whiteSpace=wrap;html=1;fillColor=#dae8fc;strokeColor=#6c8ebf;" vertex="1" parent="1">
          <mxGeometry x="160" y="70" width="70" height="150" as="geometry" />
        </mxCell>
        <mxCell id="-tlbvzrSFhPsvp-Gw672-63" style="edgeStyle=orthogonalEdgeStyle;rounded=0;orthogonalLoop=1;jettySize=auto;html=1;exitX=0.75;exitY=1;exitDx=0;exitDy=0;entryX=0.25;entryY=0;entryDx=0;entryDy=0;" edge="1" parent="1" source="-tlbvzrSFhPsvp-Gw672-24" target="-tlbvzrSFhPsvp-Gw672-26">
          <mxGeometry relative="1" as="geometry" />
        </mxCell>
        <mxCell id="-tlbvzrSFhPsvp-Gw672-24" value="VIT Block 1" style="rounded=1;whiteSpace=wrap;html=1;fillColor=#dae8fc;strokeColor=#6c8ebf;" vertex="1" parent="1">
          <mxGeometry x="330" y="100" width="120" height="60" as="geometry" />
        </mxCell>
        <mxCell id="-tlbvzrSFhPsvp-Gw672-25" value="VIT Block 2" style="rounded=1;whiteSpace=wrap;html=1;fillColor=#dae8fc;strokeColor=#6c8ebf;" vertex="1" parent="1">
          <mxGeometry x="490" y="100" width="120" height="60" as="geometry" />
        </mxCell>
        <mxCell id="-tlbvzrSFhPsvp-Gw672-53" style="edgeStyle=orthogonalEdgeStyle;rounded=0;orthogonalLoop=1;jettySize=auto;html=1;exitX=1;exitY=0.5;exitDx=0;exitDy=0;entryX=0;entryY=0.5;entryDx=0;entryDy=0;" edge="1" parent="1" source="-tlbvzrSFhPsvp-Gw672-26" target="-tlbvzrSFhPsvp-Gw672-52">
          <mxGeometry relative="1" as="geometry" />
        </mxCell>
        <mxCell id="-tlbvzrSFhPsvp-Gw672-26" value="CSA-Adapter" style="rounded=1;whiteSpace=wrap;html=1;fillColor=#e1d5e7;strokeColor=#9673a6;" vertex="1" parent="1">
          <mxGeometry x="435" y="310" width="120" height="60" as="geometry" />
        </mxCell>
        <mxCell id="-tlbvzrSFhPsvp-Gw672-27" value="VIT Block 3" style="rounded=1;whiteSpace=wrap;html=1;fillColor=#dae8fc;strokeColor=#6c8ebf;" vertex="1" parent="1">
          <mxGeometry x="660" y="100" width="120" height="60" as="geometry" />
        </mxCell>
        <mxCell id="-tlbvzrSFhPsvp-Gw672-28" value="VIT Block N" style="rounded=1;whiteSpace=wrap;html=1;fillColor=#dae8fc;strokeColor=#6c8ebf;" vertex="1" parent="1">
          <mxGeometry x="810" y="100" width="120" height="60" as="geometry" />
        </mxCell>
        <mxCell id="-tlbvzrSFhPsvp-Gw672-33" style="edgeStyle=orthogonalEdgeStyle;rounded=0;orthogonalLoop=1;jettySize=auto;html=1;exitX=1;exitY=0.5;exitDx=0;exitDy=0;entryX=0;entryY=0.5;entryDx=0;entryDy=0;" edge="1" parent="1" source="-tlbvzrSFhPsvp-Gw672-30" target="-tlbvzrSFhPsvp-Gw672-31">
          <mxGeometry relative="1" as="geometry" />
        </mxCell>
        <mxCell id="-tlbvzrSFhPsvp-Gw672-30" value="Linear Projection" style="rounded=1;whiteSpace=wrap;html=1;" vertex="1" parent="1">
          <mxGeometry x="140" y="310" width="110" height="60" as="geometry" />
        </mxCell>
        <mxCell id="-tlbvzrSFhPsvp-Gw672-42" style="edgeStyle=orthogonalEdgeStyle;rounded=0;orthogonalLoop=1;jettySize=auto;html=1;exitX=1;exitY=0.5;exitDx=0;exitDy=0;entryX=0;entryY=0.5;entryDx=0;entryDy=0;" edge="1" parent="1" source="-tlbvzrSFhPsvp-Gw672-31" target="-tlbvzrSFhPsvp-Gw672-26">
          <mxGeometry relative="1" as="geometry" />
        </mxCell>
        <mxCell id="-tlbvzrSFhPsvp-Gw672-31" value="CSA-Adapter" style="rounded=1;whiteSpace=wrap;html=1;fillColor=#e1d5e7;strokeColor=#9673a6;" vertex="1" parent="1">
          <mxGeometry x="280" y="310" width="120" height="60" as="geometry" />
        </mxCell>
        <mxCell id="-tlbvzrSFhPsvp-Gw672-41" style="edgeStyle=orthogonalEdgeStyle;rounded=0;orthogonalLoop=1;jettySize=auto;html=1;entryX=0.322;entryY=1.033;entryDx=0;entryDy=0;entryPerimeter=0;" edge="1" parent="1" source="-tlbvzrSFhPsvp-Gw672-31" target="-tlbvzrSFhPsvp-Gw672-24">
          <mxGeometry relative="1" as="geometry" />
        </mxCell>
        <mxCell id="-tlbvzrSFhPsvp-Gw672-43" style="edgeStyle=orthogonalEdgeStyle;rounded=0;orthogonalLoop=1;jettySize=auto;html=1;exitX=0.5;exitY=0;exitDx=0;exitDy=0;entryX=0.572;entryY=1.011;entryDx=0;entryDy=0;entryPerimeter=0;" edge="1" parent="1" source="-tlbvzrSFhPsvp-Gw672-26" target="-tlbvzrSFhPsvp-Gw672-25">
          <mxGeometry relative="1" as="geometry" />
        </mxCell>
        <mxCell id="-tlbvzrSFhPsvp-Gw672-44" value="" style="shape=image;verticalLabelPosition=bottom;labelBackgroundColor=default;verticalAlign=top;aspect=fixed;imageAspect=0;image=data:image/png,iVBORw0KGgoAAAANSUhEUgAAADAAAAAwCAYAAABXAvmHAAAACXBIWXMAAAsTAAALEwEAmpwYAAAHtUlEQVR4nO2ZeVCW1xXGT1VUgohLUNHgrlMTp1Pr2EzT6TQzWca22RARBIw1iVVxSdo6oVaT2qY1ahorMdamVRMtgguIgKAIRBaDkoBLkIlg3UATtbU0CQm2hu/XOe+5ojZ/lo/gDHfmHdD5Pt/z3PMs515FOlbHan+LGPk3kyRXbtfF04L3TJVmpslguZ0WEyWUOQI/E5gtECsQIWFyuyyipYIFAksFlggkWCfkdlnEio+FAisFXhH4pcAsgUmSLO198bgM9bi/WGC1wHqB5QI/F4gTn7T3RYxcZb6jzzqBLQJ/EfiVwEyB6dJL2usiQn7k7f7zbtc3CmzrbCB+L/CcJ+aSls9HyiPSXhbjJcDj/rNu95MENgtsD4DUTrDBaWGafNHynXhp9h6Rr321xX9fuhAtzZ51Lnbi/ZPA1s6Q3h22BUCyo9G0GzpghviYeyuoti9+vnQjRpo9fv9C4HcCa9zup3WFXT0grTukCPxW4Bmh5bszxccigXkCUfLPr4Y2mrTPCJ5tviTwmuN+SifIuAOye0JGEGztAisE7VLL9+c5UEudzUZIYtsCmCLXvBcvdEWobb6p1BHY0RWyQiCnF2T2gO1d4VXBc6gICWOSpHjWutrpRfUx/QY4/xcfIYeZ4caF68Xrzqeq83SBjEDI7QN77oTsEEjvBn9wn1exP+00sc7R7WUHLlKy/F98vIzkSWeLWsQqMZfRnVfBqnB19/eGQl4/yO1rdPqjwAsu1Ba5lN6koDuZ6FVDT7ZB2DFFmrwhLVGM15q2Kc4ytfiMYNjdFwoGQH5/68KuIKOX5sEy9/MNBR1gHdvsOqlm8JAE+a/4eAkiTuCn7oWvu7TVItIDIUuL7wN7+8Hbg6BwoHUhs6fR66+Oapsc6PTuppctzn51CIyUl/wH4AnZ6LlOonvhmy5t1Sp1l7N7GXUKwqB4CBSFQ34Y7A6xQjUbtnayn2kBJnAFoTRa5QBMlir/AYiST7zwedH5ve7ijm6QGQS7exld8gfA/nAoHQ6lQ+HtuyCnj3Voh9txLXpXsNnszjsM0Gon8ig55U8AzR6A37i01d3XArJc8fv6G3VKhkPZaCgdAUVDYE+o0Sujh4VbVk/IvdNA69+ldrEOKDWjpM5/AOLE57V5mXOe636vTpM3AAoGQfFQKBsJ5ePg4CgoHWbAtAtasNIsp/cNh8oMhtTOlhPqbJMlzX8AporPa/PLTojK/d29YV8/E6zy/p2R8N634MgD8N44+7MCyws1cee5TqlO9oQalVKco+np7RGZ4D8A0eLzdklfptan/q7U8UQ7GA4Mh/J74NhEqI6Gow/BodGwf7CJWT9XMBAKw00n+/rZqLHZdXWmH9KYyZJ+E4BrXhCtcJaofM5Xywy34g+OgcP3Q3U81CZAdSxU3Gs0Kg63zxUNhpKhpo29CiDQ6Ki2/JQBYIocaz0APxaIllXe7zHyn5YOXAewLwxKRsA7o6Hyu1AdCbXPwpmlUDMPjj1sglaAJcPsOTASShRAKOwINEPQC4DpAjHyoc5YrQdAZxQtOlaaW0Js5XUAwZa4B0ZB5b1Q9RjUzIGzv4b6tXD6RaiOg/JvGoiyUXBwNJSPMYvd09dCcK07SyS44TCxNQEkuPYucsUvcqNAsuuA2qYWdHQi1DwFZ16A82/ApRSoT4ITP4Ej9xuVKsYbxSq/bYLP6W0Wuta9Y6nr7vOtCWC6+LzBK8m5jz76Qh0N1AILB0HFONvpM4vhfBJcTocrhXA5Gf62EKpjoOpxOB4D1dOg8j4TcWawhdh6F4yvuxkpoRWHOmKkwTt4vOW8X5/NLsS0AHWVwxOgdhbUrYCLW+BfRfDpUbiSa1qoXQA18+H0EqiZZZ0oDLNM0FFbN0PnIT346L8dJTWtByBO7vZo402cXY2zGmA7u0NOCOQPhIoJcHI+XFgPV/Kh8QNoOgsfH4L6NXBuOVxYY7+fmA0H77ZsyNVJNdhmIh34NFe0EyKdWg2AB2KW+Lwp0hsbQmw4y+5tItRZp/wb5jwXk+GTI9B0Dq7WQ+P7cGkrXNwO/8iG82uheiqUjTE7zQ+zLMjrbwcg3ZgFfjgTEC1ZnsD0Bd7AFmZDmwaS+vm7Y6EmAS5ug89OWvH6fF4LDSXQWAkfl0Ldq6YHFbQmdOkIKB7u9NDTTmiR8oNWB+CBmC0+T2Dagf1DbNrUIsq/DkcfgJq5cDkVms7cAKCdaDoNV89BQzGcfQVqZsPxCDjyIBz+Hhy6xw4+StHZfrwEJl7u8y6u1P81QZUGVU/AiZlwciHULYO/Z9wK4GYgDQXw4QaoWwmnVNhz4f2JUDQMtgdakPn7kosoSfPOteoURXfZrHMqET7aYBT5/CQ01X0ZwNU6aKyChv1wOQ3qVsEHM6BsLOwMMv+PlfF+Lf4mELu8+08VtWZA1aOWvFcKzHm+VPxNID49Bh+9BSfmQPlYczW9GIiVB9uk+BYQsTJew8a7xE0Phnc1B56DS1ugsdY4/7/Ff3YcLrwG1ZNh3yD4s5fsPr2abNPibwEyVQrV9rykVlqpmxx/GE4tgfp1ZqvnkizIKr9jh5qN7kgaJ5ukvSymyA+ZIde8HVU+6/FQ74HUtTSYlrf8H8EX7epavWN1rI7VseT/Xf8FZJqZGyGZ0kQAAAAASUVORK5CYII=;" vertex="1" parent="1">
          <mxGeometry x="171" y="340" width="30" height="30" as="geometry" />
        </mxCell>
        <mxCell id="-tlbvzrSFhPsvp-Gw672-46" value="" style="shape=image;verticalLabelPosition=bottom;labelBackgroundColor=default;verticalAlign=top;aspect=fixed;imageAspect=0;image=data:image/png,iVBORw0KGgoAAAANSUhEUgAAADAAAAAwCAYAAABXAvmHAAAACXBIWXMAAAsTAAALEwEAmpwYAAAHtUlEQVR4nO2ZeVCW1xXGT1VUgohLUNHgrlMTp1Pr2EzT6TQzWca22RARBIw1iVVxSdo6oVaT2qY1ahorMdamVRMtgguIgKAIRBaDkoBLkIlg3UATtbU0CQm2hu/XOe+5ojZ/lo/gDHfmHdD5Pt/z3PMs515FOlbHan+LGPk3kyRXbtfF04L3TJVmpslguZ0WEyWUOQI/E5gtECsQIWFyuyyipYIFAksFlggkWCfkdlnEio+FAisFXhH4pcAsgUmSLO198bgM9bi/WGC1wHqB5QI/F4gTn7T3RYxcZb6jzzqBLQJ/EfiVwEyB6dJL2usiQn7k7f7zbtc3CmzrbCB+L/CcJ+aSls9HyiPSXhbjJcDj/rNu95MENgtsD4DUTrDBaWGafNHynXhp9h6Rr321xX9fuhAtzZ51Lnbi/ZPA1s6Q3h22BUCyo9G0GzpghviYeyuoti9+vnQjRpo9fv9C4HcCa9zup3WFXT0grTukCPxW4Bmh5bszxccigXkCUfLPr4Y2mrTPCJ5tviTwmuN+SifIuAOye0JGEGztAisE7VLL9+c5UEudzUZIYtsCmCLXvBcvdEWobb6p1BHY0RWyQiCnF2T2gO1d4VXBc6gICWOSpHjWutrpRfUx/QY4/xcfIYeZ4caF68Xrzqeq83SBjEDI7QN77oTsEEjvBn9wn1exP+00sc7R7WUHLlKy/F98vIzkSWeLWsQqMZfRnVfBqnB19/eGQl4/yO1rdPqjwAsu1Ba5lN6koDuZ6FVDT7ZB2DFFmrwhLVGM15q2Kc4ytfiMYNjdFwoGQH5/68KuIKOX5sEy9/MNBR1gHdvsOqlm8JAE+a/4eAkiTuCn7oWvu7TVItIDIUuL7wN7+8Hbg6BwoHUhs6fR66+Oapsc6PTuppctzn51CIyUl/wH4AnZ6LlOonvhmy5t1Sp1l7N7GXUKwqB4CBSFQ34Y7A6xQjUbtnayn2kBJnAFoTRa5QBMlir/AYiST7zwedH5ve7ijm6QGQS7exld8gfA/nAoHQ6lQ+HtuyCnj3Voh9txLXpXsNnszjsM0Gon8ig55U8AzR6A37i01d3XArJc8fv6G3VKhkPZaCgdAUVDYE+o0Sujh4VbVk/IvdNA69+ldrEOKDWjpM5/AOLE57V5mXOe636vTpM3AAoGQfFQKBsJ5ePg4CgoHWbAtAtasNIsp/cNh8oMhtTOlhPqbJMlzX8AporPa/PLTojK/d29YV8/E6zy/p2R8N634MgD8N44+7MCyws1cee5TqlO9oQalVKco+np7RGZ4D8A0eLzdklfptan/q7U8UQ7GA4Mh/J74NhEqI6Gow/BodGwf7CJWT9XMBAKw00n+/rZqLHZdXWmH9KYyZJ+E4BrXhCtcJaofM5Xywy34g+OgcP3Q3U81CZAdSxU3Gs0Kg63zxUNhpKhpo29CiDQ6Ki2/JQBYIocaz0APxaIllXe7zHyn5YOXAewLwxKRsA7o6Hyu1AdCbXPwpmlUDMPjj1sglaAJcPsOTASShRAKOwINEPQC4DpAjHyoc5YrQdAZxQtOlaaW0Js5XUAwZa4B0ZB5b1Q9RjUzIGzv4b6tXD6RaiOg/JvGoiyUXBwNJSPMYvd09dCcK07SyS44TCxNQEkuPYucsUvcqNAsuuA2qYWdHQi1DwFZ16A82/ApRSoT4ITP4Ej9xuVKsYbxSq/bYLP6W0Wuta9Y6nr7vOtCWC6+LzBK8m5jz76Qh0N1AILB0HFONvpM4vhfBJcTocrhXA5Gf62EKpjoOpxOB4D1dOg8j4TcWawhdh6F4yvuxkpoRWHOmKkwTt4vOW8X5/NLsS0AHWVwxOgdhbUrYCLW+BfRfDpUbiSa1qoXQA18+H0EqiZZZ0oDLNM0FFbN0PnIT346L8dJTWtByBO7vZo402cXY2zGmA7u0NOCOQPhIoJcHI+XFgPV/Kh8QNoOgsfH4L6NXBuOVxYY7+fmA0H77ZsyNVJNdhmIh34NFe0EyKdWg2AB2KW+Lwp0hsbQmw4y+5tItRZp/wb5jwXk+GTI9B0Dq7WQ+P7cGkrXNwO/8iG82uheiqUjTE7zQ+zLMjrbwcg3ZgFfjgTEC1ZnsD0Bd7AFmZDmwaS+vm7Y6EmAS5ug89OWvH6fF4LDSXQWAkfl0Ldq6YHFbQmdOkIKB7u9NDTTmiR8oNWB+CBmC0+T2Dagf1DbNrUIsq/DkcfgJq5cDkVms7cAKCdaDoNV89BQzGcfQVqZsPxCDjyIBz+Hhy6xw4+StHZfrwEJl7u8y6u1P81QZUGVU/AiZlwciHULYO/Z9wK4GYgDQXw4QaoWwmnVNhz4f2JUDQMtgdakPn7kosoSfPOteoURXfZrHMqET7aYBT5/CQ01X0ZwNU6aKyChv1wOQ3qVsEHM6BsLOwMMv+PlfF+Lf4mELu8+08VtWZA1aOWvFcKzHm+VPxNID49Bh+9BSfmQPlYczW9GIiVB9uk+BYQsTJew8a7xE0Phnc1B56DS1ugsdY4/7/Ff3YcLrwG1ZNh3yD4s5fsPr2abNPibwEyVQrV9rykVlqpmxx/GE4tgfp1ZqvnkizIKr9jh5qN7kgaJ5ukvSymyA+ZIde8HVU+6/FQ74HUtTSYlrf8H8EX7epavWN1rI7VseT/Xf8FZJqZGyGZ0kQAAAAASUVORK5CYII=;" vertex="1" parent="1">
          <mxGeometry x="355" y="340" width="30" height="30" as="geometry" />
        </mxCell>
        <mxCell id="-tlbvzrSFhPsvp-Gw672-47" value="" style="shape=image;verticalLabelPosition=bottom;labelBackgroundColor=default;verticalAlign=top;aspect=fixed;imageAspect=0;image=data:image/png,iVBORw0KGgoAAAANSUhEUgAAADAAAAAwCAYAAABXAvmHAAAACXBIWXMAAAsTAAALEwEAmpwYAAAHtUlEQVR4nO2ZeVCW1xXGT1VUgohLUNHgrlMTp1Pr2EzT6TQzWca22RARBIw1iVVxSdo6oVaT2qY1ahorMdamVRMtgguIgKAIRBaDkoBLkIlg3UATtbU0CQm2hu/XOe+5ojZ/lo/gDHfmHdD5Pt/z3PMs515FOlbHan+LGPk3kyRXbtfF04L3TJVmpslguZ0WEyWUOQI/E5gtECsQIWFyuyyipYIFAksFlggkWCfkdlnEio+FAisFXhH4pcAsgUmSLO198bgM9bi/WGC1wHqB5QI/F4gTn7T3RYxcZb6jzzqBLQJ/EfiVwEyB6dJL2usiQn7k7f7zbtc3CmzrbCB+L/CcJ+aSls9HyiPSXhbjJcDj/rNu95MENgtsD4DUTrDBaWGafNHynXhp9h6Rr321xX9fuhAtzZ51Lnbi/ZPA1s6Q3h22BUCyo9G0GzpghviYeyuoti9+vnQjRpo9fv9C4HcCa9zup3WFXT0grTukCPxW4Bmh5bszxccigXkCUfLPr4Y2mrTPCJ5tviTwmuN+SifIuAOye0JGEGztAisE7VLL9+c5UEudzUZIYtsCmCLXvBcvdEWobb6p1BHY0RWyQiCnF2T2gO1d4VXBc6gICWOSpHjWutrpRfUx/QY4/xcfIYeZ4caF68Xrzqeq83SBjEDI7QN77oTsEEjvBn9wn1exP+00sc7R7WUHLlKy/F98vIzkSWeLWsQqMZfRnVfBqnB19/eGQl4/yO1rdPqjwAsu1Ba5lN6koDuZ6FVDT7ZB2DFFmrwhLVGM15q2Kc4ytfiMYNjdFwoGQH5/68KuIKOX5sEy9/MNBR1gHdvsOqlm8JAE+a/4eAkiTuCn7oWvu7TVItIDIUuL7wN7+8Hbg6BwoHUhs6fR66+Oapsc6PTuppctzn51CIyUl/wH4AnZ6LlOonvhmy5t1Sp1l7N7GXUKwqB4CBSFQ34Y7A6xQjUbtnayn2kBJnAFoTRa5QBMlir/AYiST7zwedH5ve7ijm6QGQS7exld8gfA/nAoHQ6lQ+HtuyCnj3Voh9txLXpXsNnszjsM0Gon8ig55U8AzR6A37i01d3XArJc8fv6G3VKhkPZaCgdAUVDYE+o0Sujh4VbVk/IvdNA69+ldrEOKDWjpM5/AOLE57V5mXOe636vTpM3AAoGQfFQKBsJ5ePg4CgoHWbAtAtasNIsp/cNh8oMhtTOlhPqbJMlzX8AporPa/PLTojK/d29YV8/E6zy/p2R8N634MgD8N44+7MCyws1cee5TqlO9oQalVKco+np7RGZ4D8A0eLzdklfptan/q7U8UQ7GA4Mh/J74NhEqI6Gow/BodGwf7CJWT9XMBAKw00n+/rZqLHZdXWmH9KYyZJ+E4BrXhCtcJaofM5Xywy34g+OgcP3Q3U81CZAdSxU3Gs0Kg63zxUNhpKhpo29CiDQ6Ki2/JQBYIocaz0APxaIllXe7zHyn5YOXAewLwxKRsA7o6Hyu1AdCbXPwpmlUDMPjj1sglaAJcPsOTASShRAKOwINEPQC4DpAjHyoc5YrQdAZxQtOlaaW0Js5XUAwZa4B0ZB5b1Q9RjUzIGzv4b6tXD6RaiOg/JvGoiyUXBwNJSPMYvd09dCcK07SyS44TCxNQEkuPYucsUvcqNAsuuA2qYWdHQi1DwFZ16A82/ApRSoT4ITP4Ej9xuVKsYbxSq/bYLP6W0Wuta9Y6nr7vOtCWC6+LzBK8m5jz76Qh0N1AILB0HFONvpM4vhfBJcTocrhXA5Gf62EKpjoOpxOB4D1dOg8j4TcWawhdh6F4yvuxkpoRWHOmKkwTt4vOW8X5/NLsS0AHWVwxOgdhbUrYCLW+BfRfDpUbiSa1qoXQA18+H0EqiZZZ0oDLNM0FFbN0PnIT346L8dJTWtByBO7vZo402cXY2zGmA7u0NOCOQPhIoJcHI+XFgPV/Kh8QNoOgsfH4L6NXBuOVxYY7+fmA0H77ZsyNVJNdhmIh34NFe0EyKdWg2AB2KW+Lwp0hsbQmw4y+5tItRZp/wb5jwXk+GTI9B0Dq7WQ+P7cGkrXNwO/8iG82uheiqUjTE7zQ+zLMjrbwcg3ZgFfjgTEC1ZnsD0Bd7AFmZDmwaS+vm7Y6EmAS5ug89OWvH6fF4LDSXQWAkfl0Ldq6YHFbQmdOkIKB7u9NDTTmiR8oNWB+CBmC0+T2Dagf1DbNrUIsq/DkcfgJq5cDkVms7cAKCdaDoNV89BQzGcfQVqZsPxCDjyIBz+Hhy6xw4+StHZfrwEJl7u8y6u1P81QZUGVU/AiZlwciHULYO/Z9wK4GYgDQXw4QaoWwmnVNhz4f2JUDQMtgdakPn7kosoSfPOteoURXfZrHMqET7aYBT5/CQ01X0ZwNU6aKyChv1wOQ3qVsEHM6BsLOwMMv+PlfF+Lf4mELu8+08VtWZA1aOWvFcKzHm+VPxNID49Bh+9BSfmQPlYczW9GIiVB9uk+BYQsTJew8a7xE0Phnc1B56DS1ugsdY4/7/Ff3YcLrwG1ZNh3yD4s5fsPr2abNPibwEyVQrV9rykVlqpmxx/GE4tgfp1ZqvnkizIKr9jh5qN7kgaJ5ukvSymyA+ZIde8HVU+6/FQ74HUtTSYlrf8H8EX7epavWN1rI7VseT/Xf8FZJqZGyGZ0kQAAAAASUVORK5CYII=;" vertex="1" parent="1">
          <mxGeometry x="525" y="340" width="30" height="30" as="geometry" />
        </mxCell>
        <mxCell id="-tlbvzrSFhPsvp-Gw672-50" value="SAM Maskdecoder" style="rounded=1;whiteSpace=wrap;html=1;fillColor=#d5e8d4;strokeColor=#82b366;" vertex="1" parent="1">
          <mxGeometry x="1090" y="100" width="120" height="60" as="geometry" />
        </mxCell>
        <mxCell id="-tlbvzrSFhPsvp-Gw672-51" value="" style="shape=image;verticalLabelPosition=bottom;labelBackgroundColor=default;verticalAlign=top;aspect=fixed;imageAspect=0;image=data:image/png,iVBORw0KGgoAAAANSUhEUgAAADAAAAAwCAYAAABXAvmHAAAACXBIWXMAAAsTAAALEwEAmpwYAAAHtUlEQVR4nO2ZeVCW1xXGT1VUgohLUNHgrlMTp1Pr2EzT6TQzWca22RARBIw1iVVxSdo6oVaT2qY1ahorMdamVRMtgguIgKAIRBaDkoBLkIlg3UATtbU0CQm2hu/XOe+5ojZ/lo/gDHfmHdD5Pt/z3PMs515FOlbHan+LGPk3kyRXbtfF04L3TJVmpslguZ0WEyWUOQI/E5gtECsQIWFyuyyipYIFAksFlggkWCfkdlnEio+FAisFXhH4pcAsgUmSLO198bgM9bi/WGC1wHqB5QI/F4gTn7T3RYxcZb6jzzqBLQJ/EfiVwEyB6dJL2usiQn7k7f7zbtc3CmzrbCB+L/CcJ+aSls9HyiPSXhbjJcDj/rNu95MENgtsD4DUTrDBaWGafNHynXhp9h6Rr321xX9fuhAtzZ51Lnbi/ZPA1s6Q3h22BUCyo9G0GzpghviYeyuoti9+vnQjRpo9fv9C4HcCa9zup3WFXT0grTukCPxW4Bmh5bszxccigXkCUfLPr4Y2mrTPCJ5tviTwmuN+SifIuAOye0JGEGztAisE7VLL9+c5UEudzUZIYtsCmCLXvBcvdEWobb6p1BHY0RWyQiCnF2T2gO1d4VXBc6gICWOSpHjWutrpRfUx/QY4/xcfIYeZ4caF68Xrzqeq83SBjEDI7QN77oTsEEjvBn9wn1exP+00sc7R7WUHLlKy/F98vIzkSWeLWsQqMZfRnVfBqnB19/eGQl4/yO1rdPqjwAsu1Ba5lN6koDuZ6FVDT7ZB2DFFmrwhLVGM15q2Kc4ytfiMYNjdFwoGQH5/68KuIKOX5sEy9/MNBR1gHdvsOqlm8JAE+a/4eAkiTuCn7oWvu7TVItIDIUuL7wN7+8Hbg6BwoHUhs6fR66+Oapsc6PTuppctzn51CIyUl/wH4AnZ6LlOonvhmy5t1Sp1l7N7GXUKwqB4CBSFQ34Y7A6xQjUbtnayn2kBJnAFoTRa5QBMlir/AYiST7zwedH5ve7ijm6QGQS7exld8gfA/nAoHQ6lQ+HtuyCnj3Voh9txLXpXsNnszjsM0Gon8ig55U8AzR6A37i01d3XArJc8fv6G3VKhkPZaCgdAUVDYE+o0Sujh4VbVk/IvdNA69+ldrEOKDWjpM5/AOLE57V5mXOe636vTpM3AAoGQfFQKBsJ5ePg4CgoHWbAtAtasNIsp/cNh8oMhtTOlhPqbJMlzX8AporPa/PLTojK/d29YV8/E6zy/p2R8N634MgD8N44+7MCyws1cee5TqlO9oQalVKco+np7RGZ4D8A0eLzdklfptan/q7U8UQ7GA4Mh/J74NhEqI6Gow/BodGwf7CJWT9XMBAKw00n+/rZqLHZdXWmH9KYyZJ+E4BrXhCtcJaofM5Xywy34g+OgcP3Q3U81CZAdSxU3Gs0Kg63zxUNhpKhpo29CiDQ6Ki2/JQBYIocaz0APxaIllXe7zHyn5YOXAewLwxKRsA7o6Hyu1AdCbXPwpmlUDMPjj1sglaAJcPsOTASShRAKOwINEPQC4DpAjHyoc5YrQdAZxQtOlaaW0Js5XUAwZa4B0ZB5b1Q9RjUzIGzv4b6tXD6RaiOg/JvGoiyUXBwNJSPMYvd09dCcK07SyS44TCxNQEkuPYucsUvcqNAsuuA2qYWdHQi1DwFZ16A82/ApRSoT4ITP4Ej9xuVKsYbxSq/bYLP6W0Wuta9Y6nr7vOtCWC6+LzBK8m5jz76Qh0N1AILB0HFONvpM4vhfBJcTocrhXA5Gf62EKpjoOpxOB4D1dOg8j4TcWawhdh6F4yvuxkpoRWHOmKkwTt4vOW8X5/NLsS0AHWVwxOgdhbUrYCLW+BfRfDpUbiSa1qoXQA18+H0EqiZZZ0oDLNM0FFbN0PnIT346L8dJTWtByBO7vZo402cXY2zGmA7u0NOCOQPhIoJcHI+XFgPV/Kh8QNoOgsfH4L6NXBuOVxYY7+fmA0H77ZsyNVJNdhmIh34NFe0EyKdWg2AB2KW+Lwp0hsbQmw4y+5tItRZp/wb5jwXk+GTI9B0Dq7WQ+P7cGkrXNwO/8iG82uheiqUjTE7zQ+zLMjrbwcg3ZgFfjgTEC1ZnsD0Bd7AFmZDmwaS+vm7Y6EmAS5ug89OWvH6fF4LDSXQWAkfl0Ldq6YHFbQmdOkIKB7u9NDTTmiR8oNWB+CBmC0+T2Dagf1DbNrUIsq/DkcfgJq5cDkVms7cAKCdaDoNV89BQzGcfQVqZsPxCDjyIBz+Hhy6xw4+StHZfrwEJl7u8y6u1P81QZUGVU/AiZlwciHULYO/Z9wK4GYgDQXw4QaoWwmnVNhz4f2JUDQMtgdakPn7kosoSfPOteoURXfZrHMqET7aYBT5/CQ01X0ZwNU6aKyChv1wOQ3qVsEHM6BsLOwMMv+PlfF+Lf4mELu8+08VtWZA1aOWvFcKzHm+VPxNID49Bh+9BSfmQPlYczW9GIiVB9uk+BYQsTJew8a7xE0Phnc1B56DS1ugsdY4/7/Ff3YcLrwG1ZNh3yD4s5fsPr2abNPibwEyVQrV9rykVlqpmxx/GE4tgfp1ZqvnkizIKr9jh5qN7kgaJ5ukvSymyA+ZIde8HVU+6/FQ74HUtTSYlrf8H8EX7epavWN1rI7VseT/Xf8FZJqZGyGZ0kQAAAAASUVORK5CYII=;" vertex="1" parent="1">
          <mxGeometry x="1150" y="135" width="30" height="30" as="geometry" />
        </mxCell>
        <mxCell id="-tlbvzrSFhPsvp-Gw672-60" style="edgeStyle=orthogonalEdgeStyle;rounded=0;orthogonalLoop=1;jettySize=auto;html=1;exitX=1;exitY=0.5;exitDx=0;exitDy=0;entryX=0;entryY=0.5;entryDx=0;entryDy=0;" edge="1" parent="1" source="-tlbvzrSFhPsvp-Gw672-52" target="-tlbvzrSFhPsvp-Gw672-58">
          <mxGeometry relative="1" as="geometry" />
        </mxCell>
        <mxCell id="-tlbvzrSFhPsvp-Gw672-72" style="edgeStyle=orthogonalEdgeStyle;rounded=0;orthogonalLoop=1;jettySize=auto;html=1;exitX=0.75;exitY=0;exitDx=0;exitDy=0;entryX=0.5;entryY=1;entryDx=0;entryDy=0;" edge="1" parent="1" source="-tlbvzrSFhPsvp-Gw672-52" target="-tlbvzrSFhPsvp-Gw672-27">
          <mxGeometry relative="1" as="geometry" />
        </mxCell>
        <mxCell id="-tlbvzrSFhPsvp-Gw672-52" value="CSA-Adapter" style="rounded=1;whiteSpace=wrap;html=1;fillColor=#e1d5e7;strokeColor=#9673a6;" vertex="1" parent="1">
          <mxGeometry x="590" y="310" width="120" height="60" as="geometry" />
        </mxCell>
        <mxCell id="-tlbvzrSFhPsvp-Gw672-57" value="" style="shape=image;verticalLabelPosition=bottom;labelBackgroundColor=default;verticalAlign=top;aspect=fixed;imageAspect=0;image=data:image/png,iVBORw0KGgoAAAANSUhEUgAAADAAAAAwCAYAAABXAvmHAAAACXBIWXMAAAsTAAALEwEAmpwYAAAHtUlEQVR4nO2ZeVCW1xXGT1VUgohLUNHgrlMTp1Pr2EzT6TQzWca22RARBIw1iVVxSdo6oVaT2qY1ahorMdamVRMtgguIgKAIRBaDkoBLkIlg3UATtbU0CQm2hu/XOe+5ojZ/lo/gDHfmHdD5Pt/z3PMs515FOlbHan+LGPk3kyRXbtfF04L3TJVmpslguZ0WEyWUOQI/E5gtECsQIWFyuyyipYIFAksFlggkWCfkdlnEio+FAisFXhH4pcAsgUmSLO198bgM9bi/WGC1wHqB5QI/F4gTn7T3RYxcZb6jzzqBLQJ/EfiVwEyB6dJL2usiQn7k7f7zbtc3CmzrbCB+L/CcJ+aSls9HyiPSXhbjJcDj/rNu95MENgtsD4DUTrDBaWGafNHynXhp9h6Rr321xX9fuhAtzZ51Lnbi/ZPA1s6Q3h22BUCyo9G0GzpghviYeyuoti9+vnQjRpo9fv9C4HcCa9zup3WFXT0grTukCPxW4Bmh5bszxccigXkCUfLPr4Y2mrTPCJ5tviTwmuN+SifIuAOye0JGEGztAisE7VLL9+c5UEudzUZIYtsCmCLXvBcvdEWobb6p1BHY0RWyQiCnF2T2gO1d4VXBc6gICWOSpHjWutrpRfUx/QY4/xcfIYeZ4caF68Xrzqeq83SBjEDI7QN77oTsEEjvBn9wn1exP+00sc7R7WUHLlKy/F98vIzkSWeLWsQqMZfRnVfBqnB19/eGQl4/yO1rdPqjwAsu1Ba5lN6koDuZ6FVDT7ZB2DFFmrwhLVGM15q2Kc4ytfiMYNjdFwoGQH5/68KuIKOX5sEy9/MNBR1gHdvsOqlm8JAE+a/4eAkiTuCn7oWvu7TVItIDIUuL7wN7+8Hbg6BwoHUhs6fR66+Oapsc6PTuppctzn51CIyUl/wH4AnZ6LlOonvhmy5t1Sp1l7N7GXUKwqB4CBSFQ34Y7A6xQjUbtnayn2kBJnAFoTRa5QBMlir/AYiST7zwedH5ve7ijm6QGQS7exld8gfA/nAoHQ6lQ+HtuyCnj3Voh9txLXpXsNnszjsM0Gon8ig55U8AzR6A37i01d3XArJc8fv6G3VKhkPZaCgdAUVDYE+o0Sujh4VbVk/IvdNA69+ldrEOKDWjpM5/AOLE57V5mXOe636vTpM3AAoGQfFQKBsJ5ePg4CgoHWbAtAtasNIsp/cNh8oMhtTOlhPqbJMlzX8AporPa/PLTojK/d29YV8/E6zy/p2R8N634MgD8N44+7MCyws1cee5TqlO9oQalVKco+np7RGZ4D8A0eLzdklfptan/q7U8UQ7GA4Mh/J74NhEqI6Gow/BodGwf7CJWT9XMBAKw00n+/rZqLHZdXWmH9KYyZJ+E4BrXhCtcJaofM5Xywy34g+OgcP3Q3U81CZAdSxU3Gs0Kg63zxUNhpKhpo29CiDQ6Ki2/JQBYIocaz0APxaIllXe7zHyn5YOXAewLwxKRsA7o6Hyu1AdCbXPwpmlUDMPjj1sglaAJcPsOTASShRAKOwINEPQC4DpAjHyoc5YrQdAZxQtOlaaW0Js5XUAwZa4B0ZB5b1Q9RjUzIGzv4b6tXD6RaiOg/JvGoiyUXBwNJSPMYvd09dCcK07SyS44TCxNQEkuPYucsUvcqNAsuuA2qYWdHQi1DwFZ16A82/ApRSoT4ITP4Ej9xuVKsYbxSq/bYLP6W0Wuta9Y6nr7vOtCWC6+LzBK8m5jz76Qh0N1AILB0HFONvpM4vhfBJcTocrhXA5Gf62EKpjoOpxOB4D1dOg8j4TcWawhdh6F4yvuxkpoRWHOmKkwTt4vOW8X5/NLsS0AHWVwxOgdhbUrYCLW+BfRfDpUbiSa1qoXQA18+H0EqiZZZ0oDLNM0FFbN0PnIT346L8dJTWtByBO7vZo402cXY2zGmA7u0NOCOQPhIoJcHI+XFgPV/Kh8QNoOgsfH4L6NXBuOVxYY7+fmA0H77ZsyNVJNdhmIh34NFe0EyKdWg2AB2KW+Lwp0hsbQmw4y+5tItRZp/wb5jwXk+GTI9B0Dq7WQ+P7cGkrXNwO/8iG82uheiqUjTE7zQ+zLMjrbwcg3ZgFfjgTEC1ZnsD0Bd7AFmZDmwaS+vm7Y6EmAS5ug89OWvH6fF4LDSXQWAkfl0Ldq6YHFbQmdOkIKB7u9NDTTmiR8oNWB+CBmC0+T2Dagf1DbNrUIsq/DkcfgJq5cDkVms7cAKCdaDoNV89BQzGcfQVqZsPxCDjyIBz+Hhy6xw4+StHZfrwEJl7u8y6u1P81QZUGVU/AiZlwciHULYO/Z9wK4GYgDQXw4QaoWwmnVNhz4f2JUDQMtgdakPn7kosoSfPOteoURXfZrHMqET7aYBT5/CQ01X0ZwNU6aKyChv1wOQ3qVsEHM6BsLOwMMv+PlfF+Lf4mELu8+08VtWZA1aOWvFcKzHm+VPxNID49Bh+9BSfmQPlYczW9GIiVB9uk+BYQsTJew8a7xE0Phnc1B56DS1ugsdY4/7/Ff3YcLrwG1ZNh3yD4s5fsPr2abNPibwEyVQrV9rykVlqpmxx/GE4tgfp1ZqvnkizIKr9jh5qN7kgaJ5ukvSymyA+ZIde8HVU+6/FQ74HUtTSYlrf8H8EX7epavWN1rI7VseT/Xf8FZJqZGyGZ0kQAAAAASUVORK5CYII=;" vertex="1" parent="1">
          <mxGeometry x="690" y="340" width="30" height="30" as="geometry" />
        </mxCell>
        <mxCell id="-tlbvzrSFhPsvp-Gw672-65" style="edgeStyle=orthogonalEdgeStyle;rounded=0;orthogonalLoop=1;jettySize=auto;html=1;exitX=0.75;exitY=0;exitDx=0;exitDy=0;entryX=0.5;entryY=1;entryDx=0;entryDy=0;" edge="1" parent="1" source="-tlbvzrSFhPsvp-Gw672-58" target="-tlbvzrSFhPsvp-Gw672-28">
          <mxGeometry relative="1" as="geometry" />
        </mxCell>
        <mxCell id="-tlbvzrSFhPsvp-Gw672-69" style="edgeStyle=orthogonalEdgeStyle;rounded=0;orthogonalLoop=1;jettySize=auto;html=1;exitX=1;exitY=0.5;exitDx=0;exitDy=0;entryX=0;entryY=0.5;entryDx=0;entryDy=0;" edge="1" parent="1" source="-tlbvzrSFhPsvp-Gw672-58" target="-tlbvzrSFhPsvp-Gw672-66">
          <mxGeometry relative="1" as="geometry" />
        </mxCell>
        <mxCell id="-tlbvzrSFhPsvp-Gw672-58" value="CSA-Adapter" style="rounded=1;whiteSpace=wrap;html=1;fillColor=#e1d5e7;strokeColor=#9673a6;" vertex="1" parent="1">
          <mxGeometry x="730" y="310" width="120" height="60" as="geometry" />
        </mxCell>
        <mxCell id="-tlbvzrSFhPsvp-Gw672-59" value="" style="shape=image;verticalLabelPosition=bottom;labelBackgroundColor=default;verticalAlign=top;aspect=fixed;imageAspect=0;image=data:image/png,iVBORw0KGgoAAAANSUhEUgAAADAAAAAwCAYAAABXAvmHAAAACXBIWXMAAAsTAAALEwEAmpwYAAAHtUlEQVR4nO2ZeVCW1xXGT1VUgohLUNHgrlMTp1Pr2EzT6TQzWca22RARBIw1iVVxSdo6oVaT2qY1ahorMdamVRMtgguIgKAIRBaDkoBLkIlg3UATtbU0CQm2hu/XOe+5ojZ/lo/gDHfmHdD5Pt/z3PMs515FOlbHan+LGPk3kyRXbtfF04L3TJVmpslguZ0WEyWUOQI/E5gtECsQIWFyuyyipYIFAksFlggkWCfkdlnEio+FAisFXhH4pcAsgUmSLO198bgM9bi/WGC1wHqB5QI/F4gTn7T3RYxcZb6jzzqBLQJ/EfiVwEyB6dJL2usiQn7k7f7zbtc3CmzrbCB+L/CcJ+aSls9HyiPSXhbjJcDj/rNu95MENgtsD4DUTrDBaWGafNHynXhp9h6Rr321xX9fuhAtzZ51Lnbi/ZPA1s6Q3h22BUCyo9G0GzpghviYeyuoti9+vnQjRpo9fv9C4HcCa9zup3WFXT0grTukCPxW4Bmh5bszxccigXkCUfLPr4Y2mrTPCJ5tviTwmuN+SifIuAOye0JGEGztAisE7VLL9+c5UEudzUZIYtsCmCLXvBcvdEWobb6p1BHY0RWyQiCnF2T2gO1d4VXBc6gICWOSpHjWutrpRfUx/QY4/xcfIYeZ4caF68Xrzqeq83SBjEDI7QN77oTsEEjvBn9wn1exP+00sc7R7WUHLlKy/F98vIzkSWeLWsQqMZfRnVfBqnB19/eGQl4/yO1rdPqjwAsu1Ba5lN6koDuZ6FVDT7ZB2DFFmrwhLVGM15q2Kc4ytfiMYNjdFwoGQH5/68KuIKOX5sEy9/MNBR1gHdvsOqlm8JAE+a/4eAkiTuCn7oWvu7TVItIDIUuL7wN7+8Hbg6BwoHUhs6fR66+Oapsc6PTuppctzn51CIyUl/wH4AnZ6LlOonvhmy5t1Sp1l7N7GXUKwqB4CBSFQ34Y7A6xQjUbtnayn2kBJnAFoTRa5QBMlir/AYiST7zwedH5ve7ijm6QGQS7exld8gfA/nAoHQ6lQ+HtuyCnj3Voh9txLXpXsNnszjsM0Gon8ig55U8AzR6A37i01d3XArJc8fv6G3VKhkPZaCgdAUVDYE+o0Sujh4VbVk/IvdNA69+ldrEOKDWjpM5/AOLE57V5mXOe636vTpM3AAoGQfFQKBsJ5ePg4CgoHWbAtAtasNIsp/cNh8oMhtTOlhPqbJMlzX8AporPa/PLTojK/d29YV8/E6zy/p2R8N634MgD8N44+7MCyws1cee5TqlO9oQalVKco+np7RGZ4D8A0eLzdklfptan/q7U8UQ7GA4Mh/J74NhEqI6Gow/BodGwf7CJWT9XMBAKw00n+/rZqLHZdXWmH9KYyZJ+E4BrXhCtcJaofM5Xywy34g+OgcP3Q3U81CZAdSxU3Gs0Kg63zxUNhpKhpo29CiDQ6Ki2/JQBYIocaz0APxaIllXe7zHyn5YOXAewLwxKRsA7o6Hyu1AdCbXPwpmlUDMPjj1sglaAJcPsOTASShRAKOwINEPQC4DpAjHyoc5YrQdAZxQtOlaaW0Js5XUAwZa4B0ZB5b1Q9RjUzIGzv4b6tXD6RaiOg/JvGoiyUXBwNJSPMYvd09dCcK07SyS44TCxNQEkuPYucsUvcqNAsuuA2qYWdHQi1DwFZ16A82/ApRSoT4ITP4Ej9xuVKsYbxSq/bYLP6W0Wuta9Y6nr7vOtCWC6+LzBK8m5jz76Qh0N1AILB0HFONvpM4vhfBJcTocrhXA5Gf62EKpjoOpxOB4D1dOg8j4TcWawhdh6F4yvuxkpoRWHOmKkwTt4vOW8X5/NLsS0AHWVwxOgdhbUrYCLW+BfRfDpUbiSa1qoXQA18+H0EqiZZZ0oDLNM0FFbN0PnIT346L8dJTWtByBO7vZo402cXY2zGmA7u0NOCOQPhIoJcHI+XFgPV/Kh8QNoOgsfH4L6NXBuOVxYY7+fmA0H77ZsyNVJNdhmIh34NFe0EyKdWg2AB2KW+Lwp0hsbQmw4y+5tItRZp/wb5jwXk+GTI9B0Dq7WQ+P7cGkrXNwO/8iG82uheiqUjTE7zQ+zLMjrbwcg3ZgFfjgTEC1ZnsD0Bd7AFmZDmwaS+vm7Y6EmAS5ug89OWvH6fF4LDSXQWAkfl0Ldq6YHFbQmdOkIKB7u9NDTTmiR8oNWB+CBmC0+T2Dagf1DbNrUIsq/DkcfgJq5cDkVms7cAKCdaDoNV89BQzGcfQVqZsPxCDjyIBz+Hhy6xw4+StHZfrwEJl7u8y6u1P81QZUGVU/AiZlwciHULYO/Z9wK4GYgDQXw4QaoWwmnVNhz4f2JUDQMtgdakPn7kosoSfPOteoURXfZrHMqET7aYBT5/CQ01X0ZwNU6aKyChv1wOQ3qVsEHM6BsLOwMMv+PlfF+Lf4mELu8+08VtWZA1aOWvFcKzHm+VPxNID49Bh+9BSfmQPlYczW9GIiVB9uk+BYQsTJew8a7xE0Phnc1B56DS1ugsdY4/7/Ff3YcLrwG1ZNh3yD4s5fsPr2abNPibwEyVQrV9rykVlqpmxx/GE4tgfp1ZqvnkizIKr9jh5qN7kgaJ5ukvSymyA+ZIde8HVU+6/FQ74HUtTSYlrf8H8EX7epavWN1rI7VseT/Xf8FZJqZGyGZ0kQAAAAASUVORK5CYII=;" vertex="1" parent="1">
          <mxGeometry x="827" y="340" width="30" height="30" as="geometry" />
        </mxCell>
        <mxCell id="-tlbvzrSFhPsvp-Gw672-61" style="edgeStyle=orthogonalEdgeStyle;rounded=0;orthogonalLoop=1;jettySize=auto;html=1;exitX=0.75;exitY=1;exitDx=0;exitDy=0;entryX=0.372;entryY=-0.044;entryDx=0;entryDy=0;entryPerimeter=0;" edge="1" parent="1" source="-tlbvzrSFhPsvp-Gw672-27" target="-tlbvzrSFhPsvp-Gw672-58">
          <mxGeometry relative="1" as="geometry" />
        </mxCell>
        <mxCell id="-tlbvzrSFhPsvp-Gw672-62" style="edgeStyle=orthogonalEdgeStyle;rounded=0;orthogonalLoop=1;jettySize=auto;html=1;exitX=0.75;exitY=1;exitDx=0;exitDy=0;entryX=0.422;entryY=-0.022;entryDx=0;entryDy=0;entryPerimeter=0;" edge="1" parent="1" source="-tlbvzrSFhPsvp-Gw672-25" target="-tlbvzrSFhPsvp-Gw672-52">
          <mxGeometry relative="1" as="geometry" />
        </mxCell>
        <mxCell id="-tlbvzrSFhPsvp-Gw672-71" style="edgeStyle=orthogonalEdgeStyle;rounded=0;orthogonalLoop=1;jettySize=auto;html=1;exitX=1;exitY=0.5;exitDx=0;exitDy=0;entryX=0.25;entryY=1;entryDx=0;entryDy=0;" edge="1" parent="1" source="-tlbvzrSFhPsvp-Gw672-66" target="-tlbvzrSFhPsvp-Gw672-51">
          <mxGeometry relative="1" as="geometry" />
        </mxCell>
        <mxCell id="-tlbvzrSFhPsvp-Gw672-66" value="CSA-Adapter" style="rounded=1;whiteSpace=wrap;html=1;fillColor=#e1d5e7;strokeColor=#9673a6;" vertex="1" parent="1">
          <mxGeometry x="880" y="310" width="120" height="60" as="geometry" />
        </mxCell>
        <mxCell id="-tlbvzrSFhPsvp-Gw672-67" value="" style="shape=image;verticalLabelPosition=bottom;labelBackgroundColor=default;verticalAlign=top;aspect=fixed;imageAspect=0;image=data:image/png,iVBORw0KGgoAAAANSUhEUgAAADAAAAAwCAYAAABXAvmHAAAACXBIWXMAAAsTAAALEwEAmpwYAAAHtUlEQVR4nO2ZeVCW1xXGT1VUgohLUNHgrlMTp1Pr2EzT6TQzWca22RARBIw1iVVxSdo6oVaT2qY1ahorMdamVRMtgguIgKAIRBaDkoBLkIlg3UATtbU0CQm2hu/XOe+5ojZ/lo/gDHfmHdD5Pt/z3PMs515FOlbHan+LGPk3kyRXbtfF04L3TJVmpslguZ0WEyWUOQI/E5gtECsQIWFyuyyipYIFAksFlggkWCfkdlnEio+FAisFXhH4pcAsgUmSLO198bgM9bi/WGC1wHqB5QI/F4gTn7T3RYxcZb6jzzqBLQJ/EfiVwEyB6dJL2usiQn7k7f7zbtc3CmzrbCB+L/CcJ+aSls9HyiPSXhbjJcDj/rNu95MENgtsD4DUTrDBaWGafNHynXhp9h6Rr321xX9fuhAtzZ51Lnbi/ZPA1s6Q3h22BUCyo9G0GzpghviYeyuoti9+vnQjRpo9fv9C4HcCa9zup3WFXT0grTukCPxW4Bmh5bszxccigXkCUfLPr4Y2mrTPCJ5tviTwmuN+SifIuAOye0JGEGztAisE7VLL9+c5UEudzUZIYtsCmCLXvBcvdEWobb6p1BHY0RWyQiCnF2T2gO1d4VXBc6gICWOSpHjWutrpRfUx/QY4/xcfIYeZ4caF68Xrzqeq83SBjEDI7QN77oTsEEjvBn9wn1exP+00sc7R7WUHLlKy/F98vIzkSWeLWsQqMZfRnVfBqnB19/eGQl4/yO1rdPqjwAsu1Ba5lN6koDuZ6FVDT7ZB2DFFmrwhLVGM15q2Kc4ytfiMYNjdFwoGQH5/68KuIKOX5sEy9/MNBR1gHdvsOqlm8JAE+a/4eAkiTuCn7oWvu7TVItIDIUuL7wN7+8Hbg6BwoHUhs6fR66+Oapsc6PTuppctzn51CIyUl/wH4AnZ6LlOonvhmy5t1Sp1l7N7GXUKwqB4CBSFQ34Y7A6xQjUbtnayn2kBJnAFoTRa5QBMlir/AYiST7zwedH5ve7ijm6QGQS7exld8gfA/nAoHQ6lQ+HtuyCnj3Voh9txLXpXsNnszjsM0Gon8ig55U8AzR6A37i01d3XArJc8fv6G3VKhkPZaCgdAUVDYE+o0Sujh4VbVk/IvdNA69+ldrEOKDWjpM5/AOLE57V5mXOe636vTpM3AAoGQfFQKBsJ5ePg4CgoHWbAtAtasNIsp/cNh8oMhtTOlhPqbJMlzX8AporPa/PLTojK/d29YV8/E6zy/p2R8N634MgD8N44+7MCyws1cee5TqlO9oQalVKco+np7RGZ4D8A0eLzdklfptan/q7U8UQ7GA4Mh/J74NhEqI6Gow/BodGwf7CJWT9XMBAKw00n+/rZqLHZdXWmH9KYyZJ+E4BrXhCtcJaofM5Xywy34g+OgcP3Q3U81CZAdSxU3Gs0Kg63zxUNhpKhpo29CiDQ6Ki2/JQBYIocaz0APxaIllXe7zHyn5YOXAewLwxKRsA7o6Hyu1AdCbXPwpmlUDMPjj1sglaAJcPsOTASShRAKOwINEPQC4DpAjHyoc5YrQdAZxQtOlaaW0Js5XUAwZa4B0ZB5b1Q9RjUzIGzv4b6tXD6RaiOg/JvGoiyUXBwNJSPMYvd09dCcK07SyS44TCxNQEkuPYucsUvcqNAsuuA2qYWdHQi1DwFZ16A82/ApRSoT4ITP4Ej9xuVKsYbxSq/bYLP6W0Wuta9Y6nr7vOtCWC6+LzBK8m5jz76Qh0N1AILB0HFONvpM4vhfBJcTocrhXA5Gf62EKpjoOpxOB4D1dOg8j4TcWawhdh6F4yvuxkpoRWHOmKkwTt4vOW8X5/NLsS0AHWVwxOgdhbUrYCLW+BfRfDpUbiSa1qoXQA18+H0EqiZZZ0oDLNM0FFbN0PnIT346L8dJTWtByBO7vZo402cXY2zGmA7u0NOCOQPhIoJcHI+XFgPV/Kh8QNoOgsfH4L6NXBuOVxYY7+fmA0H77ZsyNVJNdhmIh34NFe0EyKdWg2AB2KW+Lwp0hsbQmw4y+5tItRZp/wb5jwXk+GTI9B0Dq7WQ+P7cGkrXNwO/8iG82uheiqUjTE7zQ+zLMjrbwcg3ZgFfjgTEC1ZnsD0Bd7AFmZDmwaS+vm7Y6EmAS5ug89OWvH6fF4LDSXQWAkfl0Ldq6YHFbQmdOkIKB7u9NDTTmiR8oNWB+CBmC0+T2Dagf1DbNrUIsq/DkcfgJq5cDkVms7cAKCdaDoNV89BQzGcfQVqZsPxCDjyIBz+Hhy6xw4+StHZfrwEJl7u8y6u1P81QZUGVU/AiZlwciHULYO/Z9wK4GYgDQXw4QaoWwmnVNhz4f2JUDQMtgdakPn7kosoSfPOteoURXfZrHMqET7aYBT5/CQ01X0ZwNU6aKyChv1wOQ3qVsEHM6BsLOwMMv+PlfF+Lf4mELu8+08VtWZA1aOWvFcKzHm+VPxNID49Bh+9BSfmQPlYczW9GIiVB9uk+BYQsTJew8a7xE0Phnc1B56DS1ugsdY4/7/Ff3YcLrwG1ZNh3yD4s5fsPr2abNPibwEyVQrV9rykVlqpmxx/GE4tgfp1ZqvnkizIKr9jh5qN7kgaJ5ukvSymyA+ZIde8HVU+6/FQ74HUtTSYlrf8H8EX7epavWN1rI7VseT/Xf8FZJqZGyGZ0kQAAAAASUVORK5CYII=;" vertex="1" parent="1">
          <mxGeometry x="977" y="340" width="30" height="30" as="geometry" />
        </mxCell>
        <mxCell id="-tlbvzrSFhPsvp-Gw672-68" style="edgeStyle=orthogonalEdgeStyle;rounded=0;orthogonalLoop=1;jettySize=auto;html=1;exitX=0.75;exitY=1;exitDx=0;exitDy=0;entryX=0.433;entryY=-0.056;entryDx=0;entryDy=0;entryPerimeter=0;" edge="1" parent="1" source="-tlbvzrSFhPsvp-Gw672-28" target="-tlbvzrSFhPsvp-Gw672-66">
          <mxGeometry relative="1" as="geometry" />
        </mxCell>
        <mxCell id="-tlbvzrSFhPsvp-Gw672-107" style="edgeStyle=orthogonalEdgeStyle;rounded=0;orthogonalLoop=1;jettySize=auto;html=1;exitX=1;exitY=0.5;exitDx=0;exitDy=0;entryX=0;entryY=0.5;entryDx=0;entryDy=0;" edge="1" parent="1" source="-tlbvzrSFhPsvp-Gw672-77" target="-tlbvzrSFhPsvp-Gw672-105">
          <mxGeometry relative="1" as="geometry" />
        </mxCell>
        <mxCell id="-tlbvzrSFhPsvp-Gw672-77" value="Up Projection" style="shape=trapezoid;perimeter=trapezoidPerimeter;whiteSpace=wrap;html=1;fixedSize=1;fillColor=#dae8fc;strokeColor=#6c8ebf;" vertex="1" parent="1">
          <mxGeometry x="495" y="710" width="120" height="60" as="geometry" />
        </mxCell>
        <mxCell id="-tlbvzrSFhPsvp-Gw672-78" value="" style="shape=image;verticalLabelPosition=bottom;labelBackgroundColor=default;verticalAlign=top;aspect=fixed;imageAspect=0;image=data:image/png,iVBORw0KGgoAAAANSUhEUgAAADAAAAAwCAYAAABXAvmHAAAACXBIWXMAAAsTAAALEwEAmpwYAAAHtUlEQVR4nO2ZeVCW1xXGT1VUgohLUNHgrlMTp1Pr2EzT6TQzWca22RARBIw1iVVxSdo6oVaT2qY1ahorMdamVRMtgguIgKAIRBaDkoBLkIlg3UATtbU0CQm2hu/XOe+5ojZ/lo/gDHfmHdD5Pt/z3PMs515FOlbHan+LGPk3kyRXbtfF04L3TJVmpslguZ0WEyWUOQI/E5gtECsQIWFyuyyipYIFAksFlggkWCfkdlnEio+FAisFXhH4pcAsgUmSLO198bgM9bi/WGC1wHqB5QI/F4gTn7T3RYxcZb6jzzqBLQJ/EfiVwEyB6dJL2usiQn7k7f7zbtc3CmzrbCB+L/CcJ+aSls9HyiPSXhbjJcDj/rNu95MENgtsD4DUTrDBaWGafNHynXhp9h6Rr321xX9fuhAtzZ51Lnbi/ZPA1s6Q3h22BUCyo9G0GzpghviYeyuoti9+vnQjRpo9fv9C4HcCa9zup3WFXT0grTukCPxW4Bmh5bszxccigXkCUfLPr4Y2mrTPCJ5tviTwmuN+SifIuAOye0JGEGztAisE7VLL9+c5UEudzUZIYtsCmCLXvBcvdEWobb6p1BHY0RWyQiCnF2T2gO1d4VXBc6gICWOSpHjWutrpRfUx/QY4/xcfIYeZ4caF68Xrzqeq83SBjEDI7QN77oTsEEjvBn9wn1exP+00sc7R7WUHLlKy/F98vIzkSWeLWsQqMZfRnVfBqnB19/eGQl4/yO1rdPqjwAsu1Ba5lN6koDuZ6FVDT7ZB2DFFmrwhLVGM15q2Kc4ytfiMYNjdFwoGQH5/68KuIKOX5sEy9/MNBR1gHdvsOqlm8JAE+a/4eAkiTuCn7oWvu7TVItIDIUuL7wN7+8Hbg6BwoHUhs6fR66+Oapsc6PTuppctzn51CIyUl/wH4AnZ6LlOonvhmy5t1Sp1l7N7GXUKwqB4CBSFQ34Y7A6xQjUbtnayn2kBJnAFoTRa5QBMlir/AYiST7zwedH5ve7ijm6QGQS7exld8gfA/nAoHQ6lQ+HtuyCnj3Voh9txLXpXsNnszjsM0Gon8ig55U8AzR6A37i01d3XArJc8fv6G3VKhkPZaCgdAUVDYE+o0Sujh4VbVk/IvdNA69+ldrEOKDWjpM5/AOLE57V5mXOe636vTpM3AAoGQfFQKBsJ5ePg4CgoHWbAtAtasNIsp/cNh8oMhtTOlhPqbJMlzX8AporPa/PLTojK/d29YV8/E6zy/p2R8N634MgD8N44+7MCyws1cee5TqlO9oQalVKco+np7RGZ4D8A0eLzdklfptan/q7U8UQ7GA4Mh/J74NhEqI6Gow/BodGwf7CJWT9XMBAKw00n+/rZqLHZdXWmH9KYyZJ+E4BrXhCtcJaofM5Xywy34g+OgcP3Q3U81CZAdSxU3Gs0Kg63zxUNhpKhpo29CiDQ6Ki2/JQBYIocaz0APxaIllXe7zHyn5YOXAewLwxKRsA7o6Hyu1AdCbXPwpmlUDMPjj1sglaAJcPsOTASShRAKOwINEPQC4DpAjHyoc5YrQdAZxQtOlaaW0Js5XUAwZa4B0ZB5b1Q9RjUzIGzv4b6tXD6RaiOg/JvGoiyUXBwNJSPMYvd09dCcK07SyS44TCxNQEkuPYucsUvcqNAsuuA2qYWdHQi1DwFZ16A82/ApRSoT4ITP4Ej9xuVKsYbxSq/bYLP6W0Wuta9Y6nr7vOtCWC6+LzBK8m5jz76Qh0N1AILB0HFONvpM4vhfBJcTocrhXA5Gf62EKpjoOpxOB4D1dOg8j4TcWawhdh6F4yvuxkpoRWHOmKkwTt4vOW8X5/NLsS0AHWVwxOgdhbUrYCLW+BfRfDpUbiSa1qoXQA18+H0EqiZZZ0oDLNM0FFbN0PnIT346L8dJTWtByBO7vZo402cXY2zGmA7u0NOCOQPhIoJcHI+XFgPV/Kh8QNoOgsfH4L6NXBuOVxYY7+fmA0H77ZsyNVJNdhmIh34NFe0EyKdWg2AB2KW+Lwp0hsbQmw4y+5tItRZp/wb5jwXk+GTI9B0Dq7WQ+P7cGkrXNwO/8iG82uheiqUjTE7zQ+zLMjrbwcg3ZgFfjgTEC1ZnsD0Bd7AFmZDmwaS+vm7Y6EmAS5ug89OWvH6fF4LDSXQWAkfl0Ldq6YHFbQmdOkIKB7u9NDTTmiR8oNWB+CBmC0+T2Dagf1DbNrUIsq/DkcfgJq5cDkVms7cAKCdaDoNV89BQzGcfQVqZsPxCDjyIBz+Hhy6xw4+StHZfrwEJl7u8y6u1P81QZUGVU/AiZlwciHULYO/Z9wK4GYgDQXw4QaoWwmnVNhz4f2JUDQMtgdakPn7kosoSfPOteoURXfZrHMqET7aYBT5/CQ01X0ZwNU6aKyChv1wOQ3qVsEHM6BsLOwMMv+PlfF+Lf4mELu8+08VtWZA1aOWvFcKzHm+VPxNID49Bh+9BSfmQPlYczW9GIiVB9uk+BYQsTJew8a7xE0Phnc1B56DS1ugsdY4/7/Ff3YcLrwG1ZNh3yD4s5fsPr2abNPibwEyVQrV9rykVlqpmxx/GE4tgfp1ZqvnkizIKr9jh5qN7kgaJ5ukvSymyA+ZIde8HVU+6/FQ74HUtTSYlrf8H8EX7epavWN1rI7VseT/Xf8FZJqZGyGZ0kQAAAAASUVORK5CYII=;" vertex="1" parent="1">
          <mxGeometry x="540" y="740" width="30" height="30" as="geometry" />
        </mxCell>
        <mxCell id="-tlbvzrSFhPsvp-Gw672-122" style="edgeStyle=orthogonalEdgeStyle;rounded=0;orthogonalLoop=1;jettySize=auto;html=1;exitX=1;exitY=0.5;exitDx=0;exitDy=0;" edge="1" parent="1" source="-tlbvzrSFhPsvp-Gw672-81">
          <mxGeometry relative="1" as="geometry">
            <mxPoint x="320" y="740" as="targetPoint" />
          </mxGeometry>
        </mxCell>
        <mxCell id="-tlbvzrSFhPsvp-Gw672-81" value="CSA i-1" style="rounded=1;whiteSpace=wrap;html=1;fillColor=#e1d5e7;strokeColor=#9673a6;" vertex="1" parent="1">
          <mxGeometry x="170" y="710" width="120" height="60" as="geometry" />
        </mxCell>
        <mxCell id="-tlbvzrSFhPsvp-Gw672-98" value="" style="whiteSpace=wrap;html=1;aspect=fixed;fillColor=#d5e8d4;strokeColor=#82b366;" vertex="1" parent="1">
          <mxGeometry x="217.5" y="830" width="25" height="25" as="geometry" />
        </mxCell>
        <mxCell id="-tlbvzrSFhPsvp-Gw672-99" value="" style="whiteSpace=wrap;html=1;aspect=fixed;fillColor=#d5e8d4;strokeColor=#82b366;" vertex="1" parent="1">
          <mxGeometry x="265" y="830" width="25" height="25" as="geometry" />
        </mxCell>
        <mxCell id="-tlbvzrSFhPsvp-Gw672-100" value="" style="whiteSpace=wrap;html=1;aspect=fixed;fillColor=#d5e8d4;strokeColor=#82b366;" vertex="1" parent="1">
          <mxGeometry x="320" y="830" width="25" height="25" as="geometry" />
        </mxCell>
        <mxCell id="-tlbvzrSFhPsvp-Gw672-101" value="" style="whiteSpace=wrap;html=1;aspect=fixed;fillColor=#d5e8d4;strokeColor=#82b366;" vertex="1" parent="1">
          <mxGeometry x="372.5" y="830" width="25" height="25" as="geometry" />
        </mxCell>
        <mxCell id="-tlbvzrSFhPsvp-Gw672-102" value="" style="whiteSpace=wrap;html=1;aspect=fixed;fillColor=#d5e8d4;strokeColor=#82b366;" vertex="1" parent="1">
          <mxGeometry x="420" y="830" width="25" height="25" as="geometry" />
        </mxCell>
        <mxCell id="-tlbvzrSFhPsvp-Gw672-104" value="&lt;font style=&quot;font-size: 60px;&quot;&gt;+&lt;/font&gt;" style="ellipse;whiteSpace=wrap;html=1;aspect=fixed;" vertex="1" parent="1">
          <mxGeometry x="820" y="1580" width="40" height="40" as="geometry" />
        </mxCell>
        <mxCell id="-tlbvzrSFhPsvp-Gw672-108" style="edgeStyle=orthogonalEdgeStyle;rounded=0;orthogonalLoop=1;jettySize=auto;html=1;exitX=1;exitY=0.5;exitDx=0;exitDy=0;" edge="1" parent="1" source="-tlbvzrSFhPsvp-Gw672-105">
          <mxGeometry relative="1" as="geometry">
            <mxPoint x="830" y="740" as="targetPoint" />
          </mxGeometry>
        </mxCell>
        <mxCell id="-tlbvzrSFhPsvp-Gw672-114" style="edgeStyle=orthogonalEdgeStyle;rounded=0;orthogonalLoop=1;jettySize=auto;html=1;exitX=1;exitY=1;exitDx=0;exitDy=0;" edge="1" parent="1" source="-tlbvzrSFhPsvp-Gw672-105" target="-tlbvzrSFhPsvp-Gw672-111">
          <mxGeometry relative="1" as="geometry">
            <Array as="points">
              <mxPoint x="749" y="810" />
              <mxPoint x="880" y="810" />
            </Array>
          </mxGeometry>
        </mxCell>
        <mxCell id="-tlbvzrSFhPsvp-Gw672-105" value="&lt;font style=&quot;font-size: 60px;&quot;&gt;+&lt;/font&gt;" style="ellipse;whiteSpace=wrap;html=1;aspect=fixed;" vertex="1" parent="1">
          <mxGeometry x="715" y="720" width="40" height="40" as="geometry" />
        </mxCell>
        <mxCell id="-tlbvzrSFhPsvp-Gw672-110" value="VIT Block i" style="rounded=1;whiteSpace=wrap;html=1;fillColor=#dae8fc;strokeColor=#6c8ebf;" vertex="1" parent="1">
          <mxGeometry x="840" y="710" width="120" height="60" as="geometry" />
        </mxCell>
        <mxCell id="-tlbvzrSFhPsvp-Gw672-117" style="edgeStyle=orthogonalEdgeStyle;rounded=0;orthogonalLoop=1;jettySize=auto;html=1;exitX=0;exitY=0.5;exitDx=0;exitDy=0;entryX=0;entryY=0.5;entryDx=0;entryDy=0;" edge="1" parent="1" source="-tlbvzrSFhPsvp-Gw672-111" target="-tlbvzrSFhPsvp-Gw672-116">
          <mxGeometry relative="1" as="geometry" />
        </mxCell>
        <mxCell id="-tlbvzrSFhPsvp-Gw672-111" value="Down Projection" style="shape=trapezoid;perimeter=trapezoidPerimeter;whiteSpace=wrap;html=1;fixedSize=1;direction=west;fillColor=#dae8fc;strokeColor=#6c8ebf;" vertex="1" parent="1">
          <mxGeometry x="820" y="900" width="120" height="60" as="geometry" />
        </mxCell>
        <mxCell id="-tlbvzrSFhPsvp-Gw672-112" value="" style="shape=image;verticalLabelPosition=bottom;labelBackgroundColor=default;verticalAlign=top;aspect=fixed;imageAspect=0;image=data:image/png,iVBORw0KGgoAAAANSUhEUgAAADAAAAAwCAYAAABXAvmHAAAACXBIWXMAAAsTAAALEwEAmpwYAAAHtUlEQVR4nO2ZeVCW1xXGT1VUgohLUNHgrlMTp1Pr2EzT6TQzWca22RARBIw1iVVxSdo6oVaT2qY1ahorMdamVRMtgguIgKAIRBaDkoBLkIlg3UATtbU0CQm2hu/XOe+5ojZ/lo/gDHfmHdD5Pt/z3PMs515FOlbHan+LGPk3kyRXbtfF04L3TJVmpslguZ0WEyWUOQI/E5gtECsQIWFyuyyipYIFAksFlggkWCfkdlnEio+FAisFXhH4pcAsgUmSLO198bgM9bi/WGC1wHqB5QI/F4gTn7T3RYxcZb6jzzqBLQJ/EfiVwEyB6dJL2usiQn7k7f7zbtc3CmzrbCB+L/CcJ+aSls9HyiPSXhbjJcDj/rNu95MENgtsD4DUTrDBaWGafNHynXhp9h6Rr321xX9fuhAtzZ51Lnbi/ZPA1s6Q3h22BUCyo9G0GzpghviYeyuoti9+vnQjRpo9fv9C4HcCa9zup3WFXT0grTukCPxW4Bmh5bszxccigXkCUfLPr4Y2mrTPCJ5tviTwmuN+SifIuAOye0JGEGztAisE7VLL9+c5UEudzUZIYtsCmCLXvBcvdEWobb6p1BHY0RWyQiCnF2T2gO1d4VXBc6gICWOSpHjWutrpRfUx/QY4/xcfIYeZ4caF68Xrzqeq83SBjEDI7QN77oTsEEjvBn9wn1exP+00sc7R7WUHLlKy/F98vIzkSWeLWsQqMZfRnVfBqnB19/eGQl4/yO1rdPqjwAsu1Ba5lN6koDuZ6FVDT7ZB2DFFmrwhLVGM15q2Kc4ytfiMYNjdFwoGQH5/68KuIKOX5sEy9/MNBR1gHdvsOqlm8JAE+a/4eAkiTuCn7oWvu7TVItIDIUuL7wN7+8Hbg6BwoHUhs6fR66+Oapsc6PTuppctzn51CIyUl/wH4AnZ6LlOonvhmy5t1Sp1l7N7GXUKwqB4CBSFQ34Y7A6xQjUbtnayn2kBJnAFoTRa5QBMlir/AYiST7zwedH5ve7ijm6QGQS7exld8gfA/nAoHQ6lQ+HtuyCnj3Voh9txLXpXsNnszjsM0Gon8ig55U8AzR6A37i01d3XArJc8fv6G3VKhkPZaCgdAUVDYE+o0Sujh4VbVk/IvdNA69+ldrEOKDWjpM5/AOLE57V5mXOe636vTpM3AAoGQfFQKBsJ5ePg4CgoHWbAtAtasNIsp/cNh8oMhtTOlhPqbJMlzX8AporPa/PLTojK/d29YV8/E6zy/p2R8N634MgD8N44+7MCyws1cee5TqlO9oQalVKco+np7RGZ4D8A0eLzdklfptan/q7U8UQ7GA4Mh/J74NhEqI6Gow/BodGwf7CJWT9XMBAKw00n+/rZqLHZdXWmH9KYyZJ+E4BrXhCtcJaofM5Xywy34g+OgcP3Q3U81CZAdSxU3Gs0Kg63zxUNhpKhpo29CiDQ6Ki2/JQBYIocaz0APxaIllXe7zHyn5YOXAewLwxKRsA7o6Hyu1AdCbXPwpmlUDMPjj1sglaAJcPsOTASShRAKOwINEPQC4DpAjHyoc5YrQdAZxQtOlaaW0Js5XUAwZa4B0ZB5b1Q9RjUzIGzv4b6tXD6RaiOg/JvGoiyUXBwNJSPMYvd09dCcK07SyS44TCxNQEkuPYucsUvcqNAsuuA2qYWdHQi1DwFZ16A82/ApRSoT4ITP4Ej9xuVKsYbxSq/bYLP6W0Wuta9Y6nr7vOtCWC6+LzBK8m5jz76Qh0N1AILB0HFONvpM4vhfBJcTocrhXA5Gf62EKpjoOpxOB4D1dOg8j4TcWawhdh6F4yvuxkpoRWHOmKkwTt4vOW8X5/NLsS0AHWVwxOgdhbUrYCLW+BfRfDpUbiSa1qoXQA18+H0EqiZZZ0oDLNM0FFbN0PnIT346L8dJTWtByBO7vZo402cXY2zGmA7u0NOCOQPhIoJcHI+XFgPV/Kh8QNoOgsfH4L6NXBuOVxYY7+fmA0H77ZsyNVJNdhmIh34NFe0EyKdWg2AB2KW+Lwp0hsbQmw4y+5tItRZp/wb5jwXk+GTI9B0Dq7WQ+P7cGkrXNwO/8iG82uheiqUjTE7zQ+zLMjrbwcg3ZgFfjgTEC1ZnsD0Bd7AFmZDmwaS+vm7Y6EmAS5ug89OWvH6fF4LDSXQWAkfl0Ldq6YHFbQmdOkIKB7u9NDTTmiR8oNWB+CBmC0+T2Dagf1DbNrUIsq/DkcfgJq5cDkVms7cAKCdaDoNV89BQzGcfQVqZsPxCDjyIBz+Hhy6xw4+StHZfrwEJl7u8y6u1P81QZUGVU/AiZlwciHULYO/Z9wK4GYgDQXw4QaoWwmnVNhz4f2JUDQMtgdakPn7kosoSfPOteoURXfZrHMqET7aYBT5/CQ01X0ZwNU6aKyChv1wOQ3qVsEHM6BsLOwMMv+PlfF+Lf4mELu8+08VtWZA1aOWvFcKzHm+VPxNID49Bh+9BSfmQPlYczW9GIiVB9uk+BYQsTJew8a7xE0Phnc1B56DS1ugsdY4/7/Ff3YcLrwG1ZNh3yD4s5fsPr2abNPibwEyVQrV9rykVlqpmxx/GE4tgfp1ZqvnkizIKr9jh5qN7kgaJ5ukvSymyA+ZIde8HVU+6/FQ74HUtTSYlrf8H8EX7epavWN1rI7VseT/Xf8FZJqZGyGZ0kQAAAAASUVORK5CYII=;" vertex="1" parent="1">
          <mxGeometry x="895" y="900" width="30" height="30" as="geometry" />
        </mxCell>
        <mxCell id="-tlbvzrSFhPsvp-Gw672-116" value="CSA i" style="rounded=1;whiteSpace=wrap;html=1;fillColor=#e1d5e7;strokeColor=#9673a6;" vertex="1" parent="1">
          <mxGeometry x="1007" y="900" width="120" height="60" as="geometry" />
        </mxCell>
        <mxCell id="-tlbvzrSFhPsvp-Gw672-123" style="edgeStyle=orthogonalEdgeStyle;rounded=0;orthogonalLoop=1;jettySize=auto;html=1;exitX=1;exitY=0.5;exitDx=0;exitDy=0;entryX=0;entryY=0.5;entryDx=0;entryDy=0;" edge="1" parent="1" source="-tlbvzrSFhPsvp-Gw672-121" target="-tlbvzrSFhPsvp-Gw672-77">
          <mxGeometry relative="1" as="geometry" />
        </mxCell>
        <mxCell id="-tlbvzrSFhPsvp-Gw672-121" value="FFT&amp;nbsp;" style="rounded=1;whiteSpace=wrap;html=1;" vertex="1" parent="1">
          <mxGeometry x="325" y="710" width="120" height="60" as="geometry" />
        </mxCell>
        <mxCell id="-tlbvzrSFhPsvp-Gw672-124" value="" style="whiteSpace=wrap;html=1;aspect=fixed;fillColor=#d5e8d4;strokeColor=#82b366;" vertex="1" parent="1">
          <mxGeometry x="482.5" y="1425" width="25" height="25" as="geometry" />
        </mxCell>
        <mxCell id="-tlbvzrSFhPsvp-Gw672-125" value="" style="whiteSpace=wrap;html=1;aspect=fixed;fillColor=#d5e8d4;strokeColor=#82b366;" vertex="1" parent="1">
          <mxGeometry x="530" y="1425" width="25" height="25" as="geometry" />
        </mxCell>
        <mxCell id="-tlbvzrSFhPsvp-Gw672-126" value="" style="whiteSpace=wrap;html=1;aspect=fixed;fillColor=#d5e8d4;strokeColor=#82b366;" vertex="1" parent="1">
          <mxGeometry x="585" y="1425" width="25" height="25" as="geometry" />
        </mxCell>
        <mxCell id="-tlbvzrSFhPsvp-Gw672-127" value="" style="whiteSpace=wrap;html=1;aspect=fixed;fillColor=#d5e8d4;strokeColor=#82b366;" vertex="1" parent="1">
          <mxGeometry x="637.5" y="1425" width="25" height="25" as="geometry" />
        </mxCell>
        <mxCell id="-tlbvzrSFhPsvp-Gw672-128" value="" style="whiteSpace=wrap;html=1;aspect=fixed;fillColor=#d5e8d4;strokeColor=#82b366;" vertex="1" parent="1">
          <mxGeometry x="685" y="1425" width="25" height="25" as="geometry" />
        </mxCell>
        <mxCell id="-tlbvzrSFhPsvp-Gw672-129" value="" style="shape=image;verticalLabelPosition=bottom;labelBackgroundColor=default;verticalAlign=top;aspect=fixed;imageAspect=0;image=data:image/png,iVBORw0KGgoAAAANSUhEUgAAADAAAAAwCAYAAABXAvmHAAAACXBIWXMAAAsTAAALEwEAmpwYAAAHtUlEQVR4nO2ZeVCW1xXGT1VUgohLUNHgrlMTp1Pr2EzT6TQzWca22RARBIw1iVVxSdo6oVaT2qY1ahorMdamVRMtgguIgKAIRBaDkoBLkIlg3UATtbU0CQm2hu/XOe+5ojZ/lo/gDHfmHdD5Pt/z3PMs515FOlbHan+LGPk3kyRXbtfF04L3TJVmpslguZ0WEyWUOQI/E5gtECsQIWFyuyyipYIFAksFlggkWCfkdlnEio+FAisFXhH4pcAsgUmSLO198bgM9bi/WGC1wHqB5QI/F4gTn7T3RYxcZb6jzzqBLQJ/EfiVwEyB6dJL2usiQn7k7f7zbtc3CmzrbCB+L/CcJ+aSls9HyiPSXhbjJcDj/rNu95MENgtsD4DUTrDBaWGafNHynXhp9h6Rr321xX9fuhAtzZ51Lnbi/ZPA1s6Q3h22BUCyo9G0GzpghviYeyuoti9+vnQjRpo9fv9C4HcCa9zup3WFXT0grTukCPxW4Bmh5bszxccigXkCUfLPr4Y2mrTPCJ5tviTwmuN+SifIuAOye0JGEGztAisE7VLL9+c5UEudzUZIYtsCmCLXvBcvdEWobb6p1BHY0RWyQiCnF2T2gO1d4VXBc6gICWOSpHjWutrpRfUx/QY4/xcfIYeZ4caF68Xrzqeq83SBjEDI7QN77oTsEEjvBn9wn1exP+00sc7R7WUHLlKy/F98vIzkSWeLWsQqMZfRnVfBqnB19/eGQl4/yO1rdPqjwAsu1Ba5lN6koDuZ6FVDT7ZB2DFFmrwhLVGM15q2Kc4ytfiMYNjdFwoGQH5/68KuIKOX5sEy9/MNBR1gHdvsOqlm8JAE+a/4eAkiTuCn7oWvu7TVItIDIUuL7wN7+8Hbg6BwoHUhs6fR66+Oapsc6PTuppctzn51CIyUl/wH4AnZ6LlOonvhmy5t1Sp1l7N7GXUKwqB4CBSFQ34Y7A6xQjUbtnayn2kBJnAFoTRa5QBMlir/AYiST7zwedH5ve7ijm6QGQS7exld8gfA/nAoHQ6lQ+HtuyCnj3Voh9txLXpXsNnszjsM0Gon8ig55U8AzR6A37i01d3XArJc8fv6G3VKhkPZaCgdAUVDYE+o0Sujh4VbVk/IvdNA69+ldrEOKDWjpM5/AOLE57V5mXOe636vTpM3AAoGQfFQKBsJ5ePg4CgoHWbAtAtasNIsp/cNh8oMhtTOlhPqbJMlzX8AporPa/PLTojK/d29YV8/E6zy/p2R8N634MgD8N44+7MCyws1cee5TqlO9oQalVKco+np7RGZ4D8A0eLzdklfptan/q7U8UQ7GA4Mh/J74NhEqI6Gow/BodGwf7CJWT9XMBAKw00n+/rZqLHZdXWmH9KYyZJ+E4BrXhCtcJaofM5Xywy34g+OgcP3Q3U81CZAdSxU3Gs0Kg63zxUNhpKhpo29CiDQ6Ki2/JQBYIocaz0APxaIllXe7zHyn5YOXAewLwxKRsA7o6Hyu1AdCbXPwpmlUDMPjj1sglaAJcPsOTASShRAKOwINEPQC4DpAjHyoc5YrQdAZxQtOlaaW0Js5XUAwZa4B0ZB5b1Q9RjUzIGzv4b6tXD6RaiOg/JvGoiyUXBwNJSPMYvd09dCcK07SyS44TCxNQEkuPYucsUvcqNAsuuA2qYWdHQi1DwFZ16A82/ApRSoT4ITP4Ej9xuVKsYbxSq/bYLP6W0Wuta9Y6nr7vOtCWC6+LzBK8m5jz76Qh0N1AILB0HFONvpM4vhfBJcTocrhXA5Gf62EKpjoOpxOB4D1dOg8j4TcWawhdh6F4yvuxkpoRWHOmKkwTt4vOW8X5/NLsS0AHWVwxOgdhbUrYCLW+BfRfDpUbiSa1qoXQA18+H0EqiZZZ0oDLNM0FFbN0PnIT346L8dJTWtByBO7vZo402cXY2zGmA7u0NOCOQPhIoJcHI+XFgPV/Kh8QNoOgsfH4L6NXBuOVxYY7+fmA0H77ZsyNVJNdhmIh34NFe0EyKdWg2AB2KW+Lwp0hsbQmw4y+5tItRZp/wb5jwXk+GTI9B0Dq7WQ+P7cGkrXNwO/8iG82uheiqUjTE7zQ+zLMjrbwcg3ZgFfjgTEC1ZnsD0Bd7AFmZDmwaS+vm7Y6EmAS5ug89OWvH6fF4LDSXQWAkfl0Ldq6YHFbQmdOkIKB7u9NDTTmiR8oNWB+CBmC0+T2Dagf1DbNrUIsq/DkcfgJq5cDkVms7cAKCdaDoNV89BQzGcfQVqZsPxCDjyIBz+Hhy6xw4+StHZfrwEJl7u8y6u1P81QZUGVU/AiZlwciHULYO/Z9wK4GYgDQXw4QaoWwmnVNhz4f2JUDQMtgdakPn7kosoSfPOteoURXfZrHMqET7aYBT5/CQ01X0ZwNU6aKyChv1wOQ3qVsEHM6BsLOwMMv+PlfF+Lf4mELu8+08VtWZA1aOWvFcKzHm+VPxNID49Bh+9BSfmQPlYczW9GIiVB9uk+BYQsTJew8a7xE0Phnc1B56DS1ugsdY4/7/Ff3YcLrwG1ZNh3yD4s5fsPr2abNPibwEyVQrV9rykVlqpmxx/GE4tgfp1ZqvnkizIKr9jh5qN7kgaJ5ukvSymyA+ZIde8HVU+6/FQ74HUtTSYlrf8H8EX7epavWN1rI7VseT/Xf8FZJqZGyGZ0kQAAAAASUVORK5CYII=;" vertex="1" parent="1">
          <mxGeometry x="287.5" y="1420" width="30" height="30" as="geometry" />
        </mxCell>
        <mxCell id="-tlbvzrSFhPsvp-Gw672-130" value="Down Projection" style="shape=trapezoid;perimeter=trapezoidPerimeter;whiteSpace=wrap;html=1;fixedSize=1;direction=west;fillColor=#dae8fc;strokeColor=#6c8ebf;" vertex="1" parent="1">
          <mxGeometry x="537.5" y="1500" width="120" height="60" as="geometry" />
        </mxCell>
        <mxCell id="-tlbvzrSFhPsvp-Gw672-131" value="FFT&amp;nbsp;" style="rounded=1;whiteSpace=wrap;html=1;" vertex="1" parent="1">
          <mxGeometry x="542.5" y="1590" width="120" height="60" as="geometry" />
        </mxCell>
        <mxCell id="-tlbvzrSFhPsvp-Gw672-132" style="edgeStyle=orthogonalEdgeStyle;rounded=0;orthogonalLoop=1;jettySize=auto;html=1;exitX=0.75;exitY=1;exitDx=0;exitDy=0;entryX=0.5;entryY=0;entryDx=0;entryDy=0;" edge="1" parent="1" source="-tlbvzrSFhPsvp-Gw672-133" target="-tlbvzrSFhPsvp-Gw672-131">
          <mxGeometry relative="1" as="geometry" />
        </mxCell>
        <mxCell id="-tlbvzrSFhPsvp-Gw672-133" value="" style="shape=image;verticalLabelPosition=bottom;labelBackgroundColor=default;verticalAlign=top;aspect=fixed;imageAspect=0;image=data:image/png,iVBORw0KGgoAAAANSUhEUgAAADAAAAAwCAYAAABXAvmHAAAACXBIWXMAAAsTAAALEwEAmpwYAAAHtUlEQVR4nO2ZeVCW1xXGT1VUgohLUNHgrlMTp1Pr2EzT6TQzWca22RARBIw1iVVxSdo6oVaT2qY1ahorMdamVRMtgguIgKAIRBaDkoBLkIlg3UATtbU0CQm2hu/XOe+5ojZ/lo/gDHfmHdD5Pt/z3PMs515FOlbHan+LGPk3kyRXbtfF04L3TJVmpslguZ0WEyWUOQI/E5gtECsQIWFyuyyipYIFAksFlggkWCfkdlnEio+FAisFXhH4pcAsgUmSLO198bgM9bi/WGC1wHqB5QI/F4gTn7T3RYxcZb6jzzqBLQJ/EfiVwEyB6dJL2usiQn7k7f7zbtc3CmzrbCB+L/CcJ+aSls9HyiPSXhbjJcDj/rNu95MENgtsD4DUTrDBaWGafNHynXhp9h6Rr321xX9fuhAtzZ51Lnbi/ZPA1s6Q3h22BUCyo9G0GzpghviYeyuoti9+vnQjRpo9fv9C4HcCa9zup3WFXT0grTukCPxW4Bmh5bszxccigXkCUfLPr4Y2mrTPCJ5tviTwmuN+SifIuAOye0JGEGztAisE7VLL9+c5UEudzUZIYtsCmCLXvBcvdEWobb6p1BHY0RWyQiCnF2T2gO1d4VXBc6gICWOSpHjWutrpRfUx/QY4/xcfIYeZ4caF68Xrzqeq83SBjEDI7QN77oTsEEjvBn9wn1exP+00sc7R7WUHLlKy/F98vIzkSWeLWsQqMZfRnVfBqnB19/eGQl4/yO1rdPqjwAsu1Ba5lN6koDuZ6FVDT7ZB2DFFmrwhLVGM15q2Kc4ytfiMYNjdFwoGQH5/68KuIKOX5sEy9/MNBR1gHdvsOqlm8JAE+a/4eAkiTuCn7oWvu7TVItIDIUuL7wN7+8Hbg6BwoHUhs6fR66+Oapsc6PTuppctzn51CIyUl/wH4AnZ6LlOonvhmy5t1Sp1l7N7GXUKwqB4CBSFQ34Y7A6xQjUbtnayn2kBJnAFoTRa5QBMlir/AYiST7zwedH5ve7ijm6QGQS7exld8gfA/nAoHQ6lQ+HtuyCnj3Voh9txLXpXsNnszjsM0Gon8ig55U8AzR6A37i01d3XArJc8fv6G3VKhkPZaCgdAUVDYE+o0Sujh4VbVk/IvdNA69+ldrEOKDWjpM5/AOLE57V5mXOe636vTpM3AAoGQfFQKBsJ5ePg4CgoHWbAtAtasNIsp/cNh8oMhtTOlhPqbJMlzX8AporPa/PLTojK/d29YV8/E6zy/p2R8N634MgD8N44+7MCyws1cee5TqlO9oQalVKco+np7RGZ4D8A0eLzdklfptan/q7U8UQ7GA4Mh/J74NhEqI6Gow/BodGwf7CJWT9XMBAKw00n+/rZqLHZdXWmH9KYyZJ+E4BrXhCtcJaofM5Xywy34g+OgcP3Q3U81CZAdSxU3Gs0Kg63zxUNhpKhpo29CiDQ6Ki2/JQBYIocaz0APxaIllXe7zHyn5YOXAewLwxKRsA7o6Hyu1AdCbXPwpmlUDMPjj1sglaAJcPsOTASShRAKOwINEPQC4DpAjHyoc5YrQdAZxQtOlaaW0Js5XUAwZa4B0ZB5b1Q9RjUzIGzv4b6tXD6RaiOg/JvGoiyUXBwNJSPMYvd09dCcK07SyS44TCxNQEkuPYucsUvcqNAsuuA2qYWdHQi1DwFZ16A82/ApRSoT4ITP4Ej9xuVKsYbxSq/bYLP6W0Wuta9Y6nr7vOtCWC6+LzBK8m5jz76Qh0N1AILB0HFONvpM4vhfBJcTocrhXA5Gf62EKpjoOpxOB4D1dOg8j4TcWawhdh6F4yvuxkpoRWHOmKkwTt4vOW8X5/NLsS0AHWVwxOgdhbUrYCLW+BfRfDpUbiSa1qoXQA18+H0EqiZZZ0oDLNM0FFbN0PnIT346L8dJTWtByBO7vZo402cXY2zGmA7u0NOCOQPhIoJcHI+XFgPV/Kh8QNoOgsfH4L6NXBuOVxYY7+fmA0H77ZsyNVJNdhmIh34NFe0EyKdWg2AB2KW+Lwp0hsbQmw4y+5tItRZp/wb5jwXk+GTI9B0Dq7WQ+P7cGkrXNwO/8iG82uheiqUjTE7zQ+zLMjrbwcg3ZgFfjgTEC1ZnsD0Bd7AFmZDmwaS+vm7Y6EmAS5ug89OWvH6fF4LDSXQWAkfl0Ldq6YHFbQmdOkIKB7u9NDTTmiR8oNWB+CBmC0+T2Dagf1DbNrUIsq/DkcfgJq5cDkVms7cAKCdaDoNV89BQzGcfQVqZsPxCDjyIBz+Hhy6xw4+StHZfrwEJl7u8y6u1P81QZUGVU/AiZlwciHULYO/Z9wK4GYgDQXw4QaoWwmnVNhz4f2JUDQMtgdakPn7kosoSfPOteoURXfZrHMqET7aYBT5/CQ01X0ZwNU6aKyChv1wOQ3qVsEHM6BsLOwMMv+PlfF+Lf4mELu8+08VtWZA1aOWvFcKzHm+VPxNID49Bh+9BSfmQPlYczW9GIiVB9uk+BYQsTJew8a7xE0Phnc1B56DS1ugsdY4/7/Ff3YcLrwG1ZNh3yD4s5fsPr2abNPibwEyVQrV9rykVlqpmxx/GE4tgfp1ZqvnkizIKr9jh5qN7kgaJ5ukvSymyA+ZIde8HVU+6/FQ74HUtTSYlrf8H8EX7epavWN1rI7VseT/Xf8FZJqZGyGZ0kQAAAAASUVORK5CYII=;" vertex="1" parent="1">
          <mxGeometry x="582.5" y="1535" width="30" height="30" as="geometry" />
        </mxCell>
        <mxCell id="-tlbvzrSFhPsvp-Gw672-135" style="rounded=0;orthogonalLoop=1;jettySize=auto;html=1;exitX=0;exitY=1;exitDx=0;exitDy=0;entryX=0.103;entryY=-0.006;entryDx=0;entryDy=0;entryPerimeter=0;" edge="1" parent="1" source="-tlbvzrSFhPsvp-Gw672-26">
          <mxGeometry relative="1" as="geometry">
            <mxPoint x="419.94" y="373.12" as="sourcePoint" />
            <mxPoint x="324.99999999999994" y="570.0000000000001" as="targetPoint" />
          </mxGeometry>
        </mxCell>
        <mxCell id="-tlbvzrSFhPsvp-Gw672-136" style="rounded=0;orthogonalLoop=1;jettySize=auto;html=1;exitX=0.75;exitY=1;exitDx=0;exitDy=0;" edge="1" parent="1" source="-tlbvzrSFhPsvp-Gw672-47">
          <mxGeometry relative="1" as="geometry">
            <mxPoint x="550" y="380" as="sourcePoint" />
            <mxPoint x="690" y="570" as="targetPoint" />
          </mxGeometry>
        </mxCell>
      </root>
    </mxGraphModel>
  </diagram>
</mxfile>
